# Blender v2.80 (sub 75) OBJ File: 'Tube.blend'
# www.blender.org
mtllib Tube.mtl
o Cylinder
v -13.811060 0.000002 -1.674784
v 13.811060 0.000000 -1.674784
v -13.811060 -0.326732 -1.642604
v 13.811060 -0.326733 -1.642604
v -13.811060 -0.640911 -1.547299
v 13.811060 -0.640912 -1.547299
v -13.811060 -0.930460 -1.392532
v 13.811060 -0.930461 -1.392532
v -13.811060 -1.184251 -1.184251
v 13.811060 -1.184252 -1.184251
v -13.811060 -1.392532 -0.930461
v 13.811060 -1.392533 -0.930461
v -13.811060 -1.547298 -0.640912
v 13.811060 -1.547299 -0.640912
v -13.811060 -1.642603 -0.326732
v 13.811060 -1.642604 -0.326732
v -13.811060 -1.674784 -0.000000
v 13.811060 -1.674785 -0.000000
v -13.811060 -1.642604 0.326732
v 13.811060 -1.642605 0.326732
v -13.811060 -1.547298 0.640912
v 13.811060 -1.547300 0.640912
v -13.811060 -1.392532 0.930461
v 13.811060 -1.392533 0.930461
v -13.811060 -1.184251 1.184251
v 13.811060 -1.184252 1.184251
v -13.811060 -0.930460 1.392532
v 13.811060 -0.930461 1.392532
v -13.811060 -0.640911 1.547299
v 13.811060 -0.640912 1.547299
v -13.811060 -0.326731 1.642604
v 13.811060 -0.326732 1.642604
v -13.811060 0.000001 1.674785
v 13.811060 -0.000000 1.674785
v -13.811060 0.326733 1.642604
v 13.811060 0.326732 1.642604
v -13.811060 0.640913 1.547299
v 13.811060 0.640912 1.547299
v -13.811060 0.930462 1.392532
v 13.811060 0.930461 1.392532
v -13.811060 1.184253 1.184251
v 13.811060 1.184251 1.184251
v -13.811060 1.392533 0.930460
v 13.811060 1.392532 0.930460
v -13.811060 1.547300 0.640911
v 13.811060 1.547299 0.640911
v -13.811060 1.642605 0.326731
v 13.811060 1.642604 0.326731
v -13.811060 1.674785 -0.000001
v 13.811060 1.674784 -0.000001
v -13.811060 1.642604 -0.326734
v 13.811060 1.642603 -0.326734
v -13.811060 1.547299 -0.640914
v 13.811060 1.547298 -0.640914
v -13.811060 1.392532 -0.930462
v 13.811060 1.392531 -0.930462
v -13.811060 1.184251 -1.184253
v 13.811060 1.184249 -1.184253
v -13.811060 0.930460 -1.392533
v 13.811060 0.930459 -1.392533
v -13.811060 0.640910 -1.547300
v 13.811060 0.640909 -1.547300
v -13.811060 0.326730 -1.642604
v 13.811060 0.326728 -1.642604
v -13.811060 0.000002 -1.373333
v 13.811060 0.000000 -1.373333
v -13.811060 -0.267925 -1.346944
v 13.811060 -0.267926 -1.346944
v -13.811060 -0.525551 -1.268794
v 13.811060 -0.525553 -1.268794
v -13.811060 -0.762982 -1.141885
v 13.811060 -0.762983 -1.141885
v -13.811060 -0.971092 -0.971093
v 13.811060 -0.971093 -0.971093
v -13.811060 -1.141884 -0.762982
v 13.811060 -1.141886 -0.762982
v -13.811060 -1.268793 -0.525552
v 13.811060 -1.268794 -0.525552
v -13.811060 -1.346943 -0.267926
v 13.811060 -1.346945 -0.267926
v -13.811060 -1.373332 -0.000000
v 13.811060 -1.373333 -0.000000
v -13.811060 -1.346943 0.267926
v 13.811060 -1.346945 0.267926
v -13.811060 -1.268793 0.525552
v 13.811060 -1.268794 0.525552
v -13.811060 -1.141884 0.762982
v 13.811060 -1.141886 0.762982
v -13.811060 -0.971092 0.971093
v 13.811060 -0.971093 0.971093
v -13.811060 -0.762982 1.141885
v 13.811060 -0.762983 1.141885
v -13.811060 -0.525551 1.268794
v 13.811060 -0.525552 1.268794
v -13.811060 -0.267925 1.346944
v 13.811060 -0.267926 1.346944
v -13.811060 0.000001 1.373333
v 13.811060 -0.000000 1.373333
v -13.811060 0.267927 1.346944
v 13.811060 0.267926 1.346944
v -13.811060 0.525553 1.268793
v 13.811060 0.525552 1.268793
v -13.811060 0.762984 1.141884
v 13.811060 0.762983 1.141884
v -13.811060 0.971094 0.971092
v 13.811060 0.971093 0.971092
v -13.811060 1.141886 0.762982
v 13.811060 1.141885 0.762982
v -13.811060 1.268795 0.525551
v 13.811060 1.268794 0.525551
v -13.811060 1.346945 0.267925
v 13.811060 1.346944 0.267925
v -13.811060 1.373333 -0.000001
v 13.811060 1.373332 -0.000001
v -13.811060 1.346945 -0.267927
v 13.811060 1.346943 -0.267927
v -13.811060 1.268794 -0.525554
v 13.811060 1.268793 -0.525554
v -13.811060 1.141884 -0.762984
v 13.811060 1.141883 -0.762984
v -13.811060 0.971092 -0.971094
v 13.811060 0.971091 -0.971094
v -13.811060 0.762981 -1.141886
v 13.811060 0.762980 -1.141886
v -13.811060 0.525551 -1.268795
v 13.811060 0.525549 -1.268795
v -13.811060 0.267923 -1.346944
v 13.811060 0.267922 -1.346944
vt 1.039803 2.151768
vt 0.606766 -0.861302
vt 0.608056 -0.995054
vt 1.039621 2.018016
vt 0.608095 -1.129246
vt 1.040704 1.883823
vt 0.606817 -1.258723
vt 1.042960 1.754346
vt 0.604194 -1.378509
vt 1.046273 1.634561
vt 0.600253 -1.484000
vt 1.050507 1.529070
vt 0.595091 -1.571142
vt 1.055509 1.441928
vt 0.588891 -1.636586
vt 1.061109 1.376483
vt 0.581920 -1.677818
vt 1.067122 1.335251
vt 0.574524 -1.693254
vt 1.073353 1.319816
vt 0.567094 -1.682298
vt 0.079602 1.330772
vt 0.560025 -1.645374
vt 0.085666 1.367696
vt 0.553672 -1.583899
vt 0.091349 1.429171
vt 0.548319 -1.500237
vt 0.096465 1.512833
vt 0.544161 -1.397602
vt 0.100842 1.615468
vt 0.541309 -1.279938
vt 0.104321 1.733132
vt 0.539803 -1.151767
vt 0.106766 1.861302
vt 0.539621 -1.018016
vt 0.108056 1.995054
vt 0.540704 -0.883823
vt 0.108095 2.129247
vt 0.542960 -0.754346
vt 0.106817 2.258724
vt 0.546273 -0.634561
vt 0.104194 2.378509
vt 0.550507 -0.529070
vt 0.100253 2.484000
vt 0.555509 -0.441928
vt 0.095091 2.571142
vt 0.561109 -0.376483
vt 0.088891 2.636587
vt 0.567122 -0.335251
vt 0.081920 2.677819
vt 0.573353 -0.319816
vt 0.074524 2.693254
vt 1.074524 2.693254
vt 0.579602 -0.330772
vt 1.067094 2.682298
vt 0.585666 -0.367696
vt 1.060025 2.645373
vt 0.591349 -0.429171
vt 1.053672 2.583899
vt 0.596465 -0.512834
vt 1.048319 2.500236
vt 0.600842 -0.615469
vt 1.044161 2.397601
vt 0.604321 -0.733133
vt 1.041309 2.279937
vt 1.039803 2.151768
vt 1.039621 2.018016
vt 0.608056 -0.995054
vt 0.606766 -0.861302
vt 1.040704 1.883823
vt 0.608095 -1.129246
vt 1.042960 1.754346
vt 0.606817 -1.258723
vt 1.046273 1.634561
vt 0.604194 -1.378509
vt 1.050507 1.529070
vt 0.600253 -1.484000
vt 1.055509 1.441928
vt 0.595091 -1.571142
vt 1.061109 1.376483
vt 0.588891 -1.636586
vt 1.067122 1.335251
vt 0.581920 -1.677818
vt 1.073353 1.319816
vt 0.574524 -1.693254
vt 0.079602 1.330772
vt 0.567094 -1.682298
vt 0.085666 1.367696
vt 0.560025 -1.645374
vt 0.091349 1.429171
vt 0.553672 -1.583899
vt 0.096465 1.512833
vt 0.548319 -1.500237
vt 0.100842 1.615468
vt 0.544161 -1.397602
vt 0.104321 1.733132
vt 0.541309 -1.279938
vt 0.106766 1.861302
vt 0.539803 -1.151767
vt 0.108056 1.995054
vt 0.539621 -1.018016
vt 0.108095 2.129247
vt 0.540704 -0.883823
vt 0.106817 2.258724
vt 0.542960 -0.754346
vt 0.104194 2.378509
vt 0.546273 -0.634561
vt 0.100253 2.484000
vt 0.550507 -0.529070
vt 0.095091 2.571142
vt 0.555509 -0.441928
vt 0.088891 2.636587
vt 0.561109 -0.376483
vt 0.081920 2.677819
vt 0.567122 -0.335251
vt 0.074524 2.693254
vt 0.573353 -0.319816
vt 1.074524 2.693254
vt 1.067094 2.682298
vt 0.579602 -0.330772
vt 1.060025 2.645373
vt 0.585666 -0.367696
vt 1.053672 2.583899
vt 0.591349 -0.429171
vt 1.048319 2.500236
vt 0.596465 -0.512834
vt 1.044161 2.397601
vt 0.600842 -0.615469
vt 1.041309 2.279937
vt 0.604321 -0.733133
vn -0.6857 0.0000 -0.7279
vn 0.6857 0.0000 -0.7279
vn 0.6857 -0.1420 -0.7139
vn -0.6857 -0.1420 -0.7139
vn 0.6857 -0.2785 -0.6725
vn -0.6857 -0.2785 -0.6725
vn 0.6857 -0.4044 -0.6052
vn -0.6857 -0.4044 -0.6052
vn 0.6857 -0.5147 -0.5147
vn -0.6857 -0.5147 -0.5147
vn 0.6857 -0.6052 -0.4044
vn -0.6857 -0.6052 -0.4044
vn 0.6857 -0.6725 -0.2785
vn -0.6857 -0.6725 -0.2785
vn 0.6857 -0.7139 -0.1420
vn -0.6857 -0.7139 -0.1420
vn 0.6857 -0.7279 0.0000
vn -0.6857 -0.7279 0.0000
vn 0.6857 -0.7139 0.1420
vn -0.6857 -0.7139 0.1420
vn 0.6857 -0.6725 0.2785
vn -0.6857 -0.6725 0.2785
vn 0.6857 -0.6052 0.4044
vn -0.6857 -0.6052 0.4044
vn 0.6857 -0.5147 0.5147
vn -0.6857 -0.5147 0.5147
vn 0.6857 -0.4044 0.6052
vn -0.6857 -0.4044 0.6052
vn 0.6857 -0.2785 0.6725
vn -0.6857 -0.2785 0.6725
vn 0.6857 -0.1420 0.7139
vn -0.6857 -0.1420 0.7139
vn 0.6857 0.0000 0.7279
vn -0.6857 0.0000 0.7279
vn 0.6857 0.1420 0.7139
vn -0.6857 0.1420 0.7139
vn 0.6857 0.2785 0.6725
vn -0.6857 0.2785 0.6725
vn 0.6857 0.4044 0.6052
vn -0.6857 0.4044 0.6052
vn 0.6857 0.5147 0.5147
vn -0.6857 0.5147 0.5147
vn 0.6857 0.6052 0.4044
vn -0.6857 0.6052 0.4044
vn 0.6857 0.6725 0.2785
vn -0.6857 0.6725 0.2785
vn 0.6857 0.7139 0.1420
vn -0.6857 0.7139 0.1420
vn 0.6857 0.7279 0.0000
vn -0.6857 0.7279 0.0000
vn 0.6857 0.7139 -0.1420
vn -0.6857 0.7139 -0.1420
vn 0.6857 0.6725 -0.2785
vn -0.6857 0.6725 -0.2785
vn 0.6857 0.6052 -0.4044
vn -0.6857 0.6052 -0.4044
vn 0.6857 0.5147 -0.5147
vn -0.6857 0.5147 -0.5147
vn 0.6857 0.4044 -0.6052
vn -0.6857 0.4044 -0.6052
vn 0.6857 0.2785 -0.6725
vn -0.6857 0.2785 -0.6725
vn 0.6857 0.1420 -0.7139
vn -0.6857 0.1420 -0.7139
vn -0.7298 0.0000 0.6836
vn -0.7298 0.1334 0.6705
vn 0.7298 0.1333 0.6705
vn 0.7298 0.0000 0.6836
vn -0.7298 0.2616 0.6316
vn 0.7298 0.2616 0.6316
vn -0.7298 0.3798 0.5684
vn 0.7298 0.3798 0.5684
vn -0.7298 0.4834 0.4834
vn 0.7298 0.4834 0.4834
vn -0.7298 0.5684 0.3798
vn 0.7298 0.5684 0.3798
vn -0.7298 0.6316 0.2616
vn 0.7298 0.6316 0.2616
vn -0.7298 0.6705 0.1334
vn 0.7298 0.6705 0.1334
vn -0.7298 0.6836 0.0000
vn 0.7298 0.6836 0.0000
vn -0.7298 0.6705 -0.1334
vn 0.7298 0.6705 -0.1333
vn -0.7298 0.6316 -0.2616
vn 0.7298 0.6316 -0.2616
vn -0.7298 0.5684 -0.3798
vn 0.7298 0.5684 -0.3798
vn -0.7298 0.4834 -0.4834
vn 0.7298 0.4834 -0.4834
vn -0.7298 0.3798 -0.5684
vn 0.7298 0.3798 -0.5684
vn -0.7298 0.2616 -0.6316
vn 0.7298 0.2616 -0.6316
vn -0.7298 0.1333 -0.6705
vn 0.7298 0.1334 -0.6705
vn -0.7298 0.0000 -0.6836
vn 0.7298 0.0000 -0.6836
vn -0.7298 -0.1334 -0.6705
vn 0.7298 -0.1334 -0.6705
vn -0.7298 -0.2616 -0.6316
vn 0.7298 -0.2616 -0.6316
vn -0.7298 -0.3798 -0.5684
vn 0.7298 -0.3798 -0.5684
vn -0.7298 -0.4834 -0.4834
vn 0.7298 -0.4834 -0.4834
vn -0.7298 -0.5684 -0.3798
vn 0.7298 -0.5684 -0.3798
vn -0.7298 -0.6316 -0.2616
vn 0.7298 -0.6316 -0.2616
vn -0.7298 -0.6705 -0.1333
vn 0.7298 -0.6705 -0.1333
vn -0.7298 -0.6836 0.0000
vn 0.7298 -0.6836 0.0000
vn -0.7298 -0.6705 0.1334
vn 0.7298 -0.6705 0.1334
vn -0.7298 -0.6316 0.2616
vn 0.7298 -0.6316 0.2616
vn -0.7298 -0.5684 0.3798
vn 0.7298 -0.5684 0.3798
vn -0.7298 -0.4834 0.4834
vn 0.7298 -0.4834 0.4834
vn -0.7298 -0.3798 0.5684
vn 0.7298 -0.3798 0.5684
vn -0.7298 -0.2616 0.6316
vn 0.7298 -0.2616 0.6316
vn -0.7298 -0.1333 0.6705
vn 0.7298 -0.1333 0.6705
usemtl Material
s 1
f 1/1/1 2/2/2 4/3/3 3/4/4
f 3/4/4 4/3/3 6/5/5 5/6/6
f 5/6/6 6/5/5 8/7/7 7/8/8
f 7/8/8 8/7/7 10/9/9 9/10/10
f 9/10/10 10/9/9 12/11/11 11/12/12
f 11/12/12 12/11/11 14/13/13 13/14/14
f 13/14/14 14/13/13 16/15/15 15/16/16
f 15/16/16 16/15/15 18/17/17 17/18/18
f 17/18/18 18/17/17 20/19/19 19/20/20
f 19/20/20 20/19/19 22/21/21 21/22/22
f 21/22/22 22/21/21 24/23/23 23/24/24
f 23/24/24 24/23/23 26/25/25 25/26/26
f 25/26/26 26/25/25 28/27/27 27/28/28
f 27/28/28 28/27/27 30/29/29 29/30/30
f 29/30/30 30/29/29 32/31/31 31/32/32
f 31/32/32 32/31/31 34/33/33 33/34/34
f 33/34/34 34/33/33 36/35/35 35/36/36
f 35/36/36 36/35/35 38/37/37 37/38/38
f 37/38/38 38/37/37 40/39/39 39/40/40
f 39/40/40 40/39/39 42/41/41 41/42/42
f 41/42/42 42/41/41 44/43/43 43/44/44
f 43/44/44 44/43/43 46/45/45 45/46/46
f 45/46/46 46/45/45 48/47/47 47/48/48
f 47/48/48 48/47/47 50/49/49 49/50/50
f 49/50/50 50/49/49 52/51/51 51/52/52
f 51/53/52 52/51/51 54/54/53 53/55/54
f 53/55/54 54/54/53 56/56/55 55/57/56
f 55/57/56 56/56/55 58/58/57 57/59/58
f 57/59/58 58/58/57 60/60/59 59/61/60
f 59/61/60 60/60/59 62/62/61 61/63/62
f 61/63/62 62/62/61 64/64/63 63/65/64
f 63/65/64 64/64/63 2/2/2 1/1/1
f 65/66/65 67/67/66 68/68/67 66/69/68
f 67/67/66 69/70/69 70/71/70 68/68/67
f 69/70/69 71/72/71 72/73/72 70/71/70
f 71/72/71 73/74/73 74/75/74 72/73/72
f 73/74/73 75/76/75 76/77/76 74/75/74
f 75/76/75 77/78/77 78/79/78 76/77/76
f 77/78/77 79/80/79 80/81/80 78/79/78
f 79/80/79 81/82/81 82/83/82 80/81/80
f 81/82/81 83/84/83 84/85/84 82/83/82
f 83/84/83 85/86/85 86/87/86 84/85/84
f 85/86/85 87/88/87 88/89/88 86/87/86
f 87/88/87 89/90/89 90/91/90 88/89/88
f 89/90/89 91/92/91 92/93/92 90/91/90
f 91/92/91 93/94/93 94/95/94 92/93/92
f 93/94/93 95/96/95 96/97/96 94/95/94
f 95/96/95 97/98/97 98/99/98 96/97/96
f 97/98/97 99/100/99 100/101/100 98/99/98
f 99/100/99 101/102/101 102/103/102 100/101/100
f 101/102/101 103/104/103 104/105/104 102/103/102
f 103/104/103 105/106/105 106/107/106 104/105/104
f 105/106/105 107/108/107 108/109/108 106/107/106
f 107/108/107 109/110/109 110/111/110 108/109/108
f 109/110/109 111/112/111 112/113/112 110/111/110
f 111/112/111 113/114/113 114/115/114 112/113/112
f 113/114/113 115/116/115 116/117/116 114/115/114
f 115/118/115 117/119/117 118/120/118 116/117/116
f 117/119/117 119/121/119 120/122/120 118/120/118
f 119/121/119 121/123/121 122/124/122 120/122/120
f 121/123/121 123/125/123 124/126/124 122/124/122
f 123/125/123 125/127/125 126/128/126 124/126/124
f 125/127/125 127/129/127 128/130/128 126/128/126
f 127/129/127 65/66/65 66/69/68 128/130/128
f 1/1/1 3/4/4 67/67/66 65/66/65
f 4/3/3 2/2/2 66/69/68 68/68/67
f 3/4/4 5/6/6 69/70/69 67/67/66
f 6/5/5 4/3/3 68/68/67 70/71/70
f 5/6/6 7/8/8 71/72/71 69/70/69
f 8/7/7 6/5/5 70/71/70 72/73/72
f 7/8/8 9/10/10 73/74/73 71/72/71
f 10/9/9 8/7/7 72/73/72 74/75/74
f 9/10/10 11/12/12 75/76/75 73/74/73
f 12/11/11 10/9/9 74/75/74 76/77/76
f 11/12/12 13/14/14 77/78/77 75/76/75
f 14/13/13 12/11/11 76/77/76 78/79/78
f 13/14/14 15/16/16 79/80/79 77/78/77
f 16/15/15 14/13/13 78/79/78 80/81/80
f 15/16/16 17/18/18 81/82/81 79/80/79
f 18/17/17 16/15/15 80/81/80 82/83/82
f 17/18/18 19/20/20 83/84/83 81/82/81
f 20/19/19 18/17/17 82/83/82 84/85/84
f 19/20/20 21/22/22 85/86/85 83/84/83
f 22/21/21 20/19/19 84/85/84 86/87/86
f 21/22/22 23/24/24 87/88/87 85/86/85
f 24/23/23 22/21/21 86/87/86 88/89/88
f 23/24/24 25/26/26 89/90/89 87/88/87
f 26/25/25 24/23/23 88/89/88 90/91/90
f 25/26/26 27/28/28 91/92/91 89/90/89
f 28/27/27 26/25/25 90/91/90 92/93/92
f 27/28/28 29/30/30 93/94/93 91/92/91
f 30/29/29 28/27/27 92/93/92 94/95/94
f 29/30/30 31/32/32 95/96/95 93/94/93
f 32/31/31 30/29/29 94/95/94 96/97/96
f 31/32/32 33/34/34 97/98/97 95/96/95
f 34/33/33 32/31/31 96/97/96 98/99/98
f 33/34/34 35/36/36 99/100/99 97/98/97
f 36/35/35 34/33/33 98/99/98 100/101/100
f 35/36/36 37/38/38 101/102/101 99/100/99
f 38/37/37 36/35/35 100/101/100 102/103/102
f 37/38/38 39/40/40 103/104/103 101/102/101
f 40/39/39 38/37/37 102/103/102 104/105/104
f 39/40/40 41/42/42 105/106/105 103/104/103
f 42/41/41 40/39/39 104/105/104 106/107/106
f 41/42/42 43/44/44 107/108/107 105/106/105
f 44/43/43 42/41/41 106/107/106 108/109/108
f 43/44/44 45/46/46 109/110/109 107/108/107
f 46/45/45 44/43/43 108/109/108 110/111/110
f 45/46/46 47/48/48 111/112/111 109/110/109
f 48/47/47 46/45/45 110/111/110 112/113/112
f 47/48/48 49/50/50 113/114/113 111/112/111
f 50/49/49 48/47/47 112/113/112 114/115/114
f 49/50/50 51/52/52 115/116/115 113/114/113
f 52/51/51 50/49/49 114/115/114 116/117/116
f 51/53/52 53/55/54 117/119/117 115/118/115
f 54/54/53 52/51/51 116/117/116 118/120/118
f 53/55/54 55/57/56 119/121/119 117/119/117
f 56/56/55 54/54/53 118/120/118 120/122/120
f 55/57/56 57/59/58 121/123/121 119/121/119
f 58/58/57 56/56/55 120/122/120 122/124/122
f 57/59/58 59/61/60 123/125/123 121/123/121
f 60/60/59 58/58/57 122/124/122 124/126/124
f 59/61/60 61/63/62 125/127/125 123/125/123
f 62/62/61 60/60/59 124/126/124 126/128/126
f 61/63/62 63/65/64 127/129/127 125/127/125
f 64/64/63 62/62/61 126/128/126 128/130/128
f 63/65/64 1/1/1 65/66/65 127/129/127
f 2/2/2 64/64/63 128/130/128 66/69/68
